<svg enable-background="new 0 0 400 400" viewBox="0 0 400 400" xmlns="http://www.w3.org/2000/svg"><g fill="#010103"><path d="m233.76 241.2c-3.67 5.56-4.15 11.54-3.88 17.62.24 5.47.9 10.93 1.1 16.4.5 13.67-5.09 24.79-15.06 33.74-3.27 2.93-7.21 5.17-11 7.46-2.76 1.66-5.78 2.88-8.87 4.39 1.37 4.1 2.68 7.89 6.29 10.73 8.44 6.64 16.9 13.29 24.84 20.5 5.33 4.84 9.88 10.56 14.52 16.11.99 1.18 1.68 3.82 1.03 4.91-1.36 2.29-4.11 3.28-6.78 2.28-2.58-.97-5.23-2.16-7.34-3.89-9.77-8.01-19.31-16.31-29.04-24.39-18-14.94-28.02-33.93-30.66-57.26-1.63-14.4-4.79-28.63-7.08-42.96-.45-2.81-2-3.49-4.33-3.52-1.11-.01-2.27.03-3.31.37-8.07 2.6-15.38 5.97-20.32 13.66-6.85 10.67-10.16 22.21-11.22 34.68-.92 10.81-2.2 21.59-3.54 32.35-.28 2.25-1.3 4.5-2.41 6.51-1.21 2.2-3.23 3.24-5.95 2.61-2.62-.61-4.27-1.78-4.85-4.67-2.31-11.52-1.54-22.96.75-34.33 2.65-13.18 6.68-25.93 12.02-38.3 2.93-6.79 7.17-12.25 13.28-16.39 8.12-5.5 16.28-10.79 26.69-10.29.22.01.45 0 .67 0 5.5-.01 9.44 1.74 12.22 7.23 5.25 10.37 7.83 21.34 9.53 32.65 1.58 10.5 3.11 21.01 4.69 31.51.2 1.32.47 2.66.94 3.9 1.27 3.32 2.66 3.79 5.84 2.11 1.58-.83 3.08-1.87 4.74-2.5 11.66-4.43 15.72-14.51 18.64-25.29 1.9-7.02 1.3-14.18.43-21.33-1.41-11.5 1.09-21.62 11.04-28.75 1.14-.82 2.86-1.33 4.25-1.22 20.53 1.68 35.18 11.58 43.33 30.84 8.75 20.7 13.92 42.19 14.97 64.65.06 1.23.17 2.46.31 3.68.64 5.78.6 5.63-4.94 7.44-2.58.84-4.28.18-4.99-2.14-1.45-4.77-3.21-9.57-3.72-14.47-1.93-18.81-5.42-37.16-13.95-54.23-5.96-11.98-15.92-18.96-28.88-22.4z"/><path d="m221.82 137.57c12.08 1.91 23.56.95 35.06.59 5.08-.16 10.27.37 15.27 1.32 4.1.78 7.26 3.4 8.3 8.1-4.86 3.15-10.27 4.95-16.01 4.96-12.52.02-25.05-.37-37.57-.59-1.21-.02-2.43 0-4 0-.34 6.18-.67 12.15-1.04 18.81 2.84 0 5.27.11 7.69-.02 13-.69 25.05 2.86 36.44 8.64 6.13 3.11 12.03 6.82 17.6 10.85 4.23 3.07 6.76 7.74 8.02 12.87.38 1.56.65 3.9-.19 4.86-1.62 1.84-4.2 2.06-6.45.63-3.56-2.26-7.29-4.34-10.51-7.03-14.87-12.4-32.33-16.51-51.71-16.73-.17 7.42-.29 14.65-.54 21.87-.1 3-.27 6.03-.81 8.98-.26 1.43-1.21 2.95-2.28 3.98-3.43 3.28-8.13 1.77-9.07-2.76-3.54-16.92-2.79-34.05-2.56-51.17.27-19.91.13-39.82.53-59.72.12-6.08 1.05-12.22 2.31-18.19 1.03-4.92 3.76-5.5 7.71-2.36 3.33 2.64 4.78 6.06 4.33 10.32-.37 3.55-.88 7.11-.82 10.67.06 3.65 1.1 4.28 4.59 3.73 6.96-1.09 13.94-2.06 20.85-3.4 1.45-.28 3.39-1.72 3.77-3.03.83-2.81 1.08-5.88 1.06-8.85-.03-2.96.54-5.32 3.39-6.66 2.6-1.22 5.18-1.48 6.54 1.59 1.41 3.19 3.36 6.58 3.36 9.88-.01 14.51-9 22.12-23.09 23.45-5.32.5-10.66.76-16 1.15-1.87.14-2.59 1.17-2.76 3.06-.3 3.3-.9 6.59-1.41 10.2z"/><path d="m169.58 169.35c.28-3.92.52-7.46.8-11.41-7.9-.21-15.57-.44-23.25-.62-8.83-.21-17.66-.35-26.49-.58-5.62-.15-9.42-3.12-9.94-7.61-.23-1.98.23-3.22 2.43-4 7.52-2.66 15.23-3.38 23.11-3.01 8.37.39 16.74 1.01 25.11 1.02 7.36.01 7.72-.66 8.27-7.84.2-2.54.43-5.07.64-7.6-9.19-1.91-18.12-3.89-27.1-5.6-10.64-2.03-14.84-6.07-13.67-20.05.16-1.88.58-3.75 1-5.6 1.41-6.17 1.43-6.16 8.64-7.36.8 2.71 2.07 5.48 2.37 8.35 1.17 11.34 5.67 15.56 17.17 15.56 1.68 0 3.37.06 5.03-.11 6.99-.68 5.92.81 7.15-6.78.44-2.72.22-5.59.04-8.37-.36-5.61 1.72-10.22 5.23-14.32 4.97 1.58 8.3 5.85 8.35 11.78.07 8.49-.44 16.99-.59 25.48-.55 32.1-1.04 64.2-1.56 96.31-.05 3.17-1.55 5.06-4.24 5.27-2.89.23-5.29-1.39-5.56-4.39-.86-9.46-1.57-18.93-2.15-28.41-.43-7.1-.76-7.84-7.78-7.27-4.97.4-9.86 1.78-14.77 2.78-1.09.22-2.11.79-3.2.99-11.16 2.12-20.24 7.34-27.16 16.63-2.04 2.73-5.66 4.79-8.98 5.95-4.92 1.71-8.05-1.76-6.12-6.6 1.28-3.22 3.16-6.42 5.51-8.95 4.33-4.66 9.02-9.02 13.89-13.12 5.48-4.61 11.75-7.63 19.14-7.96 4.8-.22 9.58-.79 14.37-1.22 4.69-.45 9.36-.88 14.31-1.34z"/><path d="m192.26 25.21c7.41.37 10.71 4.4 9.9 11.41-.5 4.31-.77 8.67-.82 13.01-.03 2.52 1.05 4.15 4.17 4.49 7.11.78 14.15 2.07 21.22 3.17 1.33.21 2.72.28 3.95.76 21.35 8.27 42.72 16.48 63.95 25.05 2.76 1.11 5.19 3.83 6.96 6.37 1.88 2.71.96 4.3-2.14 5.59-3.57 1.49-7.03.82-10.4-.69-8.15-3.66-16.22-7.53-24.45-11-18.63-7.86-38.2-12.68-57.98-16.27-11.37-2.06-22.98-.06-34.28 2.45-16.75 3.71-32.96 8.86-48.14 17.15-6.23 3.4-13.02 5.83-19.68 8.35-2.21.84-4.84.66-7.29.79-2.27.12-4.36-.47-4.75-3.11-.38-2.57-.52-5.2 2.45-6.63 10.96-5.28 21.74-10.97 32.92-15.73 9.44-4.02 19.21-7.39 29.06-10.26 8.77-2.55 17.83-4.13 26.81-5.88 2.5-.49 3.19-1.62 3.51-3.92.96-6.85 2.1-13.68 3.32-20.5.29-1.63 1.15-3.13 1.71-4.6z"/></g><path d="m385.2 377.6.6-.7c.6.4 1.3.9 1.9 1.5l-.6.7c-.8-.5-1.4-1-1.9-1.5zm.3 7.1c.6-1.4 1.1-2.9 1.5-4.5.3.1.6.3.9.4-.5 1.4-1 2.9-1.5 4.4zm.2-10.1.6-.6c.7.5 1.3 1.1 1.9 1.6l-.7.7c-.6-.6-1.2-1.2-1.8-1.7zm8.4-.8h.8v.9h1.8v.7h-1.8v1.8h-.8v-.3h-1.2v.9h3.3v2.6h-.8v-.4h-2.5c0 .3 0 .6-.1.8h3.4v.7h-3.5c0 .3-.1.6-.1.8h4v.7h-3.5c.7.9 1.9 1.3 3.6 1.5-.2.2-.4.5-.6.9-1.9-.3-3.2-1.1-3.8-2.3-.5 1.1-1.8 2-3.9 2.4-.2-.3-.4-.5-.6-.8 1.9-.4 3.1-.9 3.6-1.7h-3.2v-.7h3.5c.1-.2.1-.5.2-.8h-3.3v-.7h3.4c0-.2 0-.5 0-.8h-2.4v.3h-.8v-2.6h3.3v-.9h-1.2v.3h-.8v-1.8h-1.8v-.7h1.8v-.9h.8v.9h3.2zm-4.4 5.5h2.4c0-.3 0-.6 0-.9h-2.4zm1.2-3.1h3.2v-.8h-3.2zm4.4 2.2h-2.4v.9h2.5v-.9z" fill="#fcfbfa"/><path d="m389.2 385.8h.9v1.5h1.9v-1.5h.9v1.5h2.7v6h1.1v.9h-11.3v-.9h1.1v-6h2.7zm.2 8.7.5.8c-1.2.6-2.5 1.3-4 1.9-.2-.3-.3-.6-.6-.8 1.6-.6 3-1.3 4.1-1.9zm-2-4.3h1.9v-2.1h-1.9zm0 3.1h1.9v-2.2h-1.9zm2.7-3.1h1.9v-2.1h-1.9zm0 3.1h1.9v-2.2h-1.9zm2.4 1.3c1.4.6 2.7 1.2 4.1 1.8l-.5.9c-1.5-.7-2.8-1.4-4.1-1.9zm2.2-6.5h-1.9v2.1h1.9zm-1.9 5.2h1.9v-2.2h-1.9z" fill="#fcfbfa"/></svg>